# xmcd
#
# Track frame offsets: 
#        150
#        18262
#        32315
#        44630
#        62685
#        77740
#        90665
#        101197
#        115179
#        129460
#        140435
#        158055
#        176434
#        195510
#
# Disc length: 2827 seconds
#
# Revision: 0
# Processed by: cddbd v1.5.2PL0 Copyright (c) Steve Scherf et al.
# Submitted via: ExactAudioCopy v0.95b4
#
DISCID=af0b090e
DTITLE=Suzanne Michelle - My Roots
DYEAR=2006
DGENRE=
TTITLE0=Mama's All Right
TTITLE1=Towards the Light
TTITLE2=Berry Pie
TTITLE3=Waitress 115
TTITLE4=In My Mother's Arms
TTITLE5=Parables
TTITLE6=The River Sings No More
TTITLE7=Bitter Sweet
TTITLE8=Bag of Stones
TTITLE9=One Size Fits All
TTITLE10=Olmstead
TTITLE11=Fields of Misery
TTITLE12=My Lovely Samurai
TTITLE13=My Roots
EXTD=
EXTT0=
EXTT1=
EXTT2=
EXTT3=
EXTT4=
EXTT5=
EXTT6=
EXTT7=
EXTT8=
EXTT9=
EXTT10=
EXTT11=
EXTT12=
EXTT13=
PLAYORDER=
